<svg width="32" height="32" viewBox="0 0 32 32" fill="none" xmlns="http://www.w3.org/2000/svg">
<path fill-rule="evenodd" clip-rule="evenodd" d="M16 2.66666C8.63621 2.66666 2.66667 8.63619 2.66667 16C2.66667 23.3637 8.63621 29.3333 16 29.3333C23.3637 29.3333 29.3333 23.3637 29.3333 16C29.3333 12.4638 27.9285 9.07239 25.4281 6.5719C22.9276 4.07142 19.5363 2.66666 16 2.66666ZM16 26.6667C10.109 26.6667 5.33334 21.8911 5.33334 16C5.33334 10.1089 10.109 5.33332 16 5.33332C21.8911 5.33332 26.6667 10.1089 26.6667 16C26.6667 18.8289 25.5428 21.5421 23.5425 23.5425C21.5421 25.5428 18.8289 26.6667 16 26.6667ZM17.1733 8.66666V15.52L22.0133 20.36C22.2691 20.6237 22.2691 21.0429 22.0133 21.3067L21.3067 22.0133C21.0429 22.2691 20.6237 22.2691 20.36 22.0133L15.0267 16.68C14.9045 16.5545 14.8332 16.3883 14.8267 16.2133V8.66666C14.8267 8.29847 15.1252 7.99999 15.4933 7.99999H16.5067C16.8748 7.99999 17.1733 8.29847 17.1733 8.66666Z" fill="black"/>
</svg>
