<svg width="32" height="32" viewBox="0 0 32 32" fill="none" xmlns="http://www.w3.org/2000/svg">
<path d="M22.6667 27.9997C20.4617 27.9977 18.2911 27.4528 16.3467 26.4131L15.7467 26.0797C11.601 23.8508 8.20225 20.452 5.97333 16.3064L5.64 15.7064C4.57309 13.7509 4.00951 11.5606 4 9.33305V8.43972C3.99944 7.729 4.28261 7.04745 4.78667 6.54638L7.04 4.29305C7.25884 4.07252 7.56775 3.96622 7.87595 4.0054C8.18415 4.04457 8.45664 4.22478 8.61333 4.49305L11.6133 9.63972C11.9167 10.1636 11.8291 10.8261 11.4 11.253L8.88 13.7731C8.67072 13.98 8.62196 14.2997 8.76 14.5597L9.22667 15.4397C10.9027 18.5443 13.4524 21.0893 16.56 22.7597L17.44 23.2397C17.7 23.3777 18.0197 23.3289 18.2267 23.1197L20.7467 20.5997C21.1736 20.1707 21.8361 20.0831 22.36 20.3864L27.5067 23.3864C27.7749 23.5431 27.9552 23.8156 27.9943 24.1237C28.0335 24.432 27.9272 24.7409 27.7067 24.9597L25.4533 27.2131C24.9523 27.7171 24.2707 28.0003 23.56 27.9997H22.6667Z" fill="black"/>
</svg>
