<svg width="32" height="32" viewBox="0 0 32 32" fill="none" xmlns="http://www.w3.org/2000/svg">
<path d="M16.0001 2.66666C10.6748 2.66666 6.34245 6.99906 6.34245 12.3243C6.34245 18.9331 14.9851 28.6351 15.3531 29.0448C15.6987 29.4297 16.3021 29.4291 16.6472 29.0448C17.0151 28.6351 25.6577 18.9331 25.6577 12.3243C25.6576 6.99906 21.3253 2.66666 16.0001 2.66666ZM16.0001 17.1833C13.3208 17.1833 11.1411 15.0036 11.1411 12.3243C11.1411 9.64499 13.3209 7.4653 16.0001 7.4653C18.6793 7.4653 20.8591 9.64504 20.8591 12.3243C20.8591 15.0036 18.6793 17.1833 16.0001 17.1833Z" fill="black"/>
</svg>
